<svg xmlns="http://www.w3.org/2000/svg" width="550" height="204" viewBox="0 0 550 204"><defs><symbol id="lg-anthropic" viewBox="0 0 16 16"><path d="M9.03125 2.66667L13.0181 12.6667H15.2045L11.2176 2.66667H9.03125Z" fill="#F6F4F4"/>
<path d="M4.40596 8.70951L5.77015 5.19523L7.13433 8.70951H4.40596ZM4.62713 2.66667L0.640869 12.6667H2.86975L3.685 10.5667H7.85543L8.67055 12.6667H10.8994L6.91316 2.66667H4.62713Z" fill="#F6F4F4"/></symbol><symbol id="lg-openai" viewBox="0 0 16 16"><g>
<path d="M13.689 6.78472C13.8396 6.33292 13.8898 5.85601 13.8438 5.38328C13.7977 4.91056 13.6429 4.45457 13.4045 4.0446C13.0489 3.42546 12.5051 2.936 11.8525 2.64316C11.1999 2.35032 10.4719 2.27502 9.77335 2.42563C9.45957 2.07003 9.07049 1.78556 8.63545 1.59313C8.20036 1.40069 7.73184 1.30029 7.25492 1.30447C6.53956 1.30447 5.84511 1.52619 5.26362 1.94872C4.68631 2.36706 4.25542 2.9611 4.0337 3.63881C3.56935 3.73503 3.13009 3.92746 2.74522 4.20775C2.36034 4.48804 2.03822 4.84363 1.80395 5.25778C1.44418 5.87692 1.29358 6.59229 1.36888 7.30347C1.44418 8.01467 1.7412 8.68399 2.22229 9.21526C2.07169 9.6671 2.02149 10.144 2.06751 10.6167C2.11771 11.0894 2.26831 11.5454 2.50677 11.9554C2.86235 12.5745 3.40619 13.064 4.0588 13.3568C4.71141 13.6497 5.43932 13.725 6.13795 13.5744C6.4517 13.93 6.84076 14.2144 7.27583 14.4069C7.71091 14.5993 8.17942 14.6997 8.65633 14.6955C9.37173 14.6955 10.0703 14.4738 10.6477 14.0513C11.225 13.6329 11.6559 13.0389 11.8775 12.357C12.3419 12.2608 12.7812 12.0683 13.166 11.788C13.5509 11.5078 13.8689 11.1522 14.1073 10.738C14.4671 10.1189 14.6177 9.40353 14.5424 8.69233C14.4671 7.98119 14.1701 7.31181 13.689 6.78472ZM8.68567 13.817C8.02049 13.817 7.50176 13.6121 7.05412 13.2355C7.07503 13.223 7.1085 13.2062 7.1336 13.1895L9.79843 11.65C9.86538 11.6124 9.91974 11.558 9.95742 11.4911C9.99504 11.4241 10.016 11.3488 10.016 11.2735V7.51682L11.1413 8.1694C11.1413 8.1694 11.1539 8.1778 11.158 8.182C11.158 8.18614 11.1622 8.19454 11.1664 8.19874V11.3112C11.1664 12.721 9.99084 13.8212 8.68567 13.8212V13.817ZM3.26814 11.5161C2.9753 11.0099 2.86653 10.4117 2.97112 9.83443C2.99204 9.84697 3.02551 9.86791 3.0506 9.88044L5.71543 11.4199C5.78236 11.4576 5.85767 11.4785 5.93297 11.4785C6.00827 11.4785 6.08356 11.4576 6.1505 11.4199L9.40521 9.54158V10.8426C9.40521 10.8426 9.40521 10.8551 9.40521 10.8635C9.40521 10.8677 9.39681 10.8761 9.39261 10.8803L6.69853 12.4365C6.12122 12.767 5.43933 12.859 4.79508 12.6875C4.15084 12.516 3.60281 12.0935 3.27233 11.5203L3.26814 11.5161ZM2.56533 5.69704C2.85817 5.18666 3.32253 4.79761 3.87055 4.59681V7.76784C3.87055 7.84314 3.89147 7.91844 3.92912 7.98533C3.96676 8.05229 4.02115 8.1067 4.08809 8.14432L7.34277 10.0227L6.21743 10.6753C6.21743 10.6753 6.20489 10.6795 6.2007 10.6837C6.19234 10.6837 6.18815 10.6837 6.17979 10.6837L3.48568 9.12743C2.90837 8.79277 2.49003 8.24476 2.31851 7.60465C2.147 6.96043 2.23484 6.27853 2.56533 5.70123V5.69704ZM11.8232 7.85148L8.5685 5.97315L9.69385 5.32472C9.69385 5.32472 9.70639 5.32053 9.71059 5.31635H9.73147L12.4256 6.87257C12.8398 7.111 13.1744 7.46246 13.3961 7.88496C13.6179 8.30745 13.7099 8.78437 13.6722 9.25714C13.6304 9.73399 13.4547 10.1858 13.166 10.5623C12.8774 10.943 12.4884 11.2317 12.0407 11.3948V8.22382C12.0407 8.14852 12.0198 8.07323 11.9822 8.00627C11.9445 7.93931 11.8901 7.88496 11.8232 7.84728V7.85148ZM12.9443 6.1614C12.9443 6.1614 12.8899 6.12793 12.8649 6.11538L10.2 4.57589C10.1331 4.53824 10.0578 4.51732 9.9825 4.51732C9.9072 4.51732 9.82771 4.53824 9.76495 4.57589L6.51027 6.45424V5.1532C6.51027 5.1532 6.51027 5.14065 6.51027 5.13228C6.51027 5.1281 6.51864 5.11973 6.52283 5.11555L9.21694 3.55932C9.6311 3.32087 10.0996 3.20373 10.5765 3.22466C11.0534 3.24557 11.5136 3.40036 11.9027 3.67228C12.2917 3.94419 12.5971 4.32488 12.7812 4.76414C12.9652 5.2034 13.0196 5.68867 12.9401 6.15722L12.9443 6.1614ZM5.89532 8.48318L4.76998 7.8306C4.76998 7.8306 4.75743 7.8222 4.75325 7.818C4.75325 7.81386 4.74907 7.80546 4.74488 7.80126V4.68884C4.74488 4.21194 4.88293 3.74758 5.13812 3.34179C5.3933 2.94018 5.75726 2.61806 6.19234 2.41726C6.62323 2.21645 7.10432 2.14115 7.57705 2.19972C8.04977 2.26247 8.4974 2.45491 8.86134 2.76029C8.8404 2.77284 8.80698 2.78958 8.78185 2.80631L6.11704 4.34581C6.0501 4.38345 5.99572 4.43784 5.95806 4.50477C5.92042 4.57171 5.8995 4.64701 5.8995 4.72231V8.47898L5.89532 8.48318ZM6.50609 7.16542L7.95353 6.32874L9.40101 7.16542V8.83878L7.95353 9.67544L6.50609 8.83878V7.16542Z" fill="#F6F4F4"/>
</g>
</symbol><symbol id="lg-cursor" viewBox="0 0 467 532"><!-- Generator: Adobe Illustrator 29.6.1, SVG Export Plug-In . SVG Version: 2.1.1 Build 9)  -->
  
  <path fill="#edecec" d="M457.43,125.94L244.42,2.96c-6.84-3.95-15.28-3.95-22.12,0L9.3,125.94c-5.75,3.32-9.3,9.46-9.3,16.11v247.99c0,6.65,3.55,12.79,9.3,16.11l213.01,122.98c6.84,3.95,15.28,3.95,22.12,0l213.01-122.98c5.75-3.32,9.3-9.46,9.3-16.11v-247.99c0-6.65-3.55-12.79-9.3-16.11h-.01ZM444.05,151.99l-205.63,356.16c-1.39,2.4-5.06,1.42-5.06-1.36v-233.21c0-4.66-2.49-8.97-6.53-11.31L24.87,145.67c-2.4-1.39-1.42-5.06,1.36-5.06h411.26c5.84,0,9.49,6.33,6.57,11.39h-.01Z"/></symbol><clipPath id="r"><rect width="550" height="204" rx="6"/></clipPath></defs><g clip-path="url(#r)"><rect x="0.0" y="0" width="87.9" height="19" fill="#2f343b"/><text x="44.0" y="13.5" fill="#010101" fill-opacity="0.3" font-family="Verdana,DejaVu Sans,Geneva,sans-serif" font-size="9" text-anchor="middle">AGENT</text><text x="44.0" y="12.5" fill="#fff" font-family="Verdana,DejaVu Sans,Geneva,sans-serif" font-size="9" text-anchor="middle">AGENT</text><rect x="87.9" y="0" width="119.2" height="19" fill="#2f343b"/><text x="147.5" y="13.5" fill="#010101" fill-opacity="0.3" font-family="Verdana,DejaVu Sans,Geneva,sans-serif" font-size="9" text-anchor="middle">MODEL</text><text x="147.5" y="12.5" fill="#fff" font-family="Verdana,DejaVu Sans,Geneva,sans-serif" font-size="9" text-anchor="middle">MODEL</text><rect x="207.1" y="0" width="161.6" height="19" fill="#2f343b"/><text x="287.9" y="13.5" fill="#010101" fill-opacity="0.3" font-family="Verdana,DejaVu Sans,Geneva,sans-serif" font-size="9" text-anchor="middle">AVG TIME/TASK (mm:ss)</text><text x="287.9" y="12.5" fill="#fff" font-family="Verdana,DejaVu Sans,Geneva,sans-serif" font-size="9" text-anchor="middle">AVG TIME/TASK (mm:ss)</text><rect x="368.7" y="0" width="65.4" height="19" fill="#2f343b"/><text x="401.4" y="13.5" fill="#010101" fill-opacity="0.3" font-family="Verdana,DejaVu Sans,Geneva,sans-serif" font-size="9" text-anchor="middle">COST</text><text x="401.4" y="12.5" fill="#fff" font-family="Verdana,DejaVu Sans,Geneva,sans-serif" font-size="9" text-anchor="middle">COST</text><rect x="434.1" y="0" width="116.0" height="19" fill="#2f343b"/><text x="492.1" y="13.5" fill="#010101" fill-opacity="0.3" font-family="Verdana,DejaVu Sans,Geneva,sans-serif" font-size="9" text-anchor="middle">SOLVED</text><text x="492.1" y="12.5" fill="#fff" font-family="Verdana,DejaVu Sans,Geneva,sans-serif" font-size="9" text-anchor="middle">SOLVED</text><rect x="0.0" y="19" width="87.9" height="23" fill="#565d64"/><text x="44.0" y="34.5" fill="#010101" fill-opacity="0.3" font-family="Verdana,DejaVu Sans,Geneva,sans-serif" font-size="11" text-anchor="middle">claude code</text><text x="44.0" y="33.5" fill="#fff" font-family="Verdana,DejaVu Sans,Geneva,sans-serif" font-size="11" text-anchor="middle">claude code</text><rect x="87.9" y="19" width="119.2" height="23" fill="#3a4047"/><use href="#lg-anthropic" x="118.2" y="24.0" width="13.0" height="13"/><text x="137.2" y="34.5" fill="#010101" fill-opacity="0.3" font-family="Verdana,DejaVu Sans,Geneva,sans-serif" font-size="11">Fable 5</text><text x="137.2" y="33.5" fill="#fff" font-family="Verdana,DejaVu Sans,Geneva,sans-serif" font-size="11">Fable 5</text><rect x="207.1" y="19" width="161.6" height="23" fill="#4a5158"/><text x="287.9" y="34.5" fill="#010101" fill-opacity="0.3" font-family="Verdana,DejaVu Sans,Geneva,sans-serif" font-size="11" text-anchor="middle">7:05</text><text x="287.9" y="33.5" fill="#fff" font-family="Verdana,DejaVu Sans,Geneva,sans-serif" font-size="11" text-anchor="middle">7:05</text><rect x="368.7" y="19" width="65.4" height="23" fill="#3a4047"/><text x="401.4" y="34.5" fill="#010101" fill-opacity="0.3" font-family="Verdana,DejaVu Sans,Geneva,sans-serif" font-size="11" text-anchor="middle">$13.20</text><text x="401.4" y="33.5" fill="#fff" font-family="Verdana,DejaVu Sans,Geneva,sans-serif" font-size="11" text-anchor="middle">$13.20</text><rect x="434.1" y="19" width="116.0" height="23" fill="#2b3036"/><rect x="447.1" y="26.5" width="65.2" height="8" rx="4" fill="#454c54"/><rect x="447.1" y="26.5" width="39.1" height="8" rx="4" fill="#2ea44f"/><text x="519.3" y="34.0" fill="#c9d1d9" font-family="Verdana,DejaVu Sans,Geneva,sans-serif" font-size="10.5" font-weight="700">3/5</text><rect x="0" y="19" width="550" height="1" fill="#1b1f24" fill-opacity="0.6"/><rect x="0.0" y="42" width="87.9" height="23" fill="#565d64"/><text x="44.0" y="57.5" fill="#010101" fill-opacity="0.3" font-family="Verdana,DejaVu Sans,Geneva,sans-serif" font-size="11" text-anchor="middle">claude code</text><text x="44.0" y="56.5" fill="#fff" font-family="Verdana,DejaVu Sans,Geneva,sans-serif" font-size="11" text-anchor="middle">claude code</text><rect x="87.9" y="42" width="119.2" height="23" fill="#3a4047"/><use href="#lg-anthropic" x="114.6" y="47.0" width="13.0" height="13"/><text x="133.6" y="57.5" fill="#010101" fill-opacity="0.3" font-family="Verdana,DejaVu Sans,Geneva,sans-serif" font-size="11">Opus 4.8</text><text x="133.6" y="56.5" fill="#fff" font-family="Verdana,DejaVu Sans,Geneva,sans-serif" font-size="11">Opus 4.8</text><rect x="207.1" y="42" width="161.6" height="23" fill="#4a5158"/><text x="287.9" y="57.5" fill="#010101" fill-opacity="0.3" font-family="Verdana,DejaVu Sans,Geneva,sans-serif" font-size="11" text-anchor="middle">6:19</text><text x="287.9" y="56.5" fill="#fff" font-family="Verdana,DejaVu Sans,Geneva,sans-serif" font-size="11" text-anchor="middle">6:19</text><rect x="368.7" y="42" width="65.4" height="23" fill="#3a4047"/><text x="401.4" y="57.5" fill="#010101" fill-opacity="0.3" font-family="Verdana,DejaVu Sans,Geneva,sans-serif" font-size="11" text-anchor="middle">$7.98</text><text x="401.4" y="56.5" fill="#fff" font-family="Verdana,DejaVu Sans,Geneva,sans-serif" font-size="11" text-anchor="middle">$7.98</text><rect x="434.1" y="42" width="116.0" height="23" fill="#2b3036"/><rect x="447.1" y="49.5" width="65.2" height="8" rx="4" fill="#454c54"/><rect x="447.1" y="49.5" width="39.1" height="8" rx="4" fill="#2ea44f"/><text x="519.3" y="57.0" fill="#c9d1d9" font-family="Verdana,DejaVu Sans,Geneva,sans-serif" font-size="10.5" font-weight="700">3/5</text><rect x="0" y="42" width="550" height="1" fill="#1b1f24" fill-opacity="0.6"/><rect x="0.0" y="65" width="87.9" height="23" fill="#565d64"/><text x="44.0" y="80.5" fill="#010101" fill-opacity="0.3" font-family="Verdana,DejaVu Sans,Geneva,sans-serif" font-size="11" text-anchor="middle">factory</text><text x="44.0" y="79.5" fill="#fff" font-family="Verdana,DejaVu Sans,Geneva,sans-serif" font-size="11" text-anchor="middle">factory</text><rect x="87.9" y="65" width="119.2" height="23" fill="#3a4047"/><use href="#lg-openai" x="115.3" y="70.0" width="13.0" height="13"/><text x="134.2" y="80.5" fill="#010101" fill-opacity="0.3" font-family="Verdana,DejaVu Sans,Geneva,sans-serif" font-size="11">GPT-5.5</text><text x="134.2" y="79.5" fill="#fff" font-family="Verdana,DejaVu Sans,Geneva,sans-serif" font-size="11">GPT-5.5</text><rect x="207.1" y="65" width="161.6" height="23" fill="#4a5158"/><text x="287.9" y="80.5" fill="#010101" fill-opacity="0.3" font-family="Verdana,DejaVu Sans,Geneva,sans-serif" font-size="11" text-anchor="middle">8:43</text><text x="287.9" y="79.5" fill="#fff" font-family="Verdana,DejaVu Sans,Geneva,sans-serif" font-size="11" text-anchor="middle">8:43</text><rect x="368.7" y="65" width="65.4" height="23" fill="#3a4047"/><text x="401.4" y="80.5" fill="#010101" fill-opacity="0.3" font-family="Verdana,DejaVu Sans,Geneva,sans-serif" font-size="11" text-anchor="middle">$8.64</text><text x="401.4" y="79.5" fill="#fff" font-family="Verdana,DejaVu Sans,Geneva,sans-serif" font-size="11" text-anchor="middle">$8.64</text><rect x="434.1" y="65" width="116.0" height="23" fill="#2b3036"/><rect x="447.1" y="72.5" width="65.2" height="8" rx="4" fill="#454c54"/><rect x="447.1" y="72.5" width="39.1" height="8" rx="4" fill="#2ea44f"/><text x="519.3" y="80.0" fill="#c9d1d9" font-family="Verdana,DejaVu Sans,Geneva,sans-serif" font-size="10.5" font-weight="700">3/5</text><rect x="0" y="65" width="550" height="1" fill="#1b1f24" fill-opacity="0.6"/><rect x="0.0" y="88" width="87.9" height="23" fill="#565d64"/><text x="44.0" y="103.5" fill="#010101" fill-opacity="0.3" font-family="Verdana,DejaVu Sans,Geneva,sans-serif" font-size="11" text-anchor="middle">codex</text><text x="44.0" y="102.5" fill="#fff" font-family="Verdana,DejaVu Sans,Geneva,sans-serif" font-size="11" text-anchor="middle">codex</text><rect x="87.9" y="88" width="119.2" height="23" fill="#3a4047"/><use href="#lg-openai" x="115.3" y="93.0" width="13.0" height="13"/><text x="134.2" y="103.5" fill="#010101" fill-opacity="0.3" font-family="Verdana,DejaVu Sans,Geneva,sans-serif" font-size="11">GPT-5.5</text><text x="134.2" y="102.5" fill="#fff" font-family="Verdana,DejaVu Sans,Geneva,sans-serif" font-size="11">GPT-5.5</text><rect x="207.1" y="88" width="161.6" height="23" fill="#4a5158"/><text x="287.9" y="103.5" fill="#010101" fill-opacity="0.3" font-family="Verdana,DejaVu Sans,Geneva,sans-serif" font-size="11" text-anchor="middle">3:13</text><text x="287.9" y="102.5" fill="#fff" font-family="Verdana,DejaVu Sans,Geneva,sans-serif" font-size="11" text-anchor="middle">3:13</text><rect x="368.7" y="88" width="65.4" height="23" fill="#3a4047"/><text x="401.4" y="103.5" fill="#010101" fill-opacity="0.3" font-family="Verdana,DejaVu Sans,Geneva,sans-serif" font-size="11" text-anchor="middle">$5.35</text><text x="401.4" y="102.5" fill="#fff" font-family="Verdana,DejaVu Sans,Geneva,sans-serif" font-size="11" text-anchor="middle">$5.35</text><rect x="434.1" y="88" width="116.0" height="23" fill="#2b3036"/><rect x="447.1" y="95.5" width="65.2" height="8" rx="4" fill="#454c54"/><rect x="447.1" y="95.5" width="39.1" height="8" rx="4" fill="#2ea44f"/><text x="519.3" y="103.0" fill="#c9d1d9" font-family="Verdana,DejaVu Sans,Geneva,sans-serif" font-size="10.5" font-weight="700">3/5</text><rect x="0" y="88" width="550" height="1" fill="#1b1f24" fill-opacity="0.6"/><rect x="0.0" y="111" width="87.9" height="23" fill="#565d64"/><text x="44.0" y="126.5" fill="#010101" fill-opacity="0.3" font-family="Verdana,DejaVu Sans,Geneva,sans-serif" font-size="11" text-anchor="middle">cursor</text><text x="44.0" y="125.5" fill="#fff" font-family="Verdana,DejaVu Sans,Geneva,sans-serif" font-size="11" text-anchor="middle">cursor</text><rect x="87.9" y="111" width="119.2" height="23" fill="#3a4047"/><use href="#lg-cursor" x="101.7" y="116.0" width="11.4" height="13"/><text x="119.1" y="126.5" fill="#010101" fill-opacity="0.3" font-family="Verdana,DejaVu Sans,Geneva,sans-serif" font-size="11">Composer 2.5</text><text x="119.1" y="125.5" fill="#fff" font-family="Verdana,DejaVu Sans,Geneva,sans-serif" font-size="11">Composer 2.5</text><rect x="207.1" y="111" width="161.6" height="23" fill="#4a5158"/><text x="287.9" y="126.5" fill="#010101" fill-opacity="0.3" font-family="Verdana,DejaVu Sans,Geneva,sans-serif" font-size="11" text-anchor="middle">6:51</text><text x="287.9" y="125.5" fill="#fff" font-family="Verdana,DejaVu Sans,Geneva,sans-serif" font-size="11" text-anchor="middle">6:51</text><rect x="368.7" y="111" width="65.4" height="23" fill="#3a4047"/><text x="401.4" y="126.5" fill="#010101" fill-opacity="0.3" font-family="Verdana,DejaVu Sans,Geneva,sans-serif" font-size="11" text-anchor="middle">$1.09</text><text x="401.4" y="125.5" fill="#fff" font-family="Verdana,DejaVu Sans,Geneva,sans-serif" font-size="11" text-anchor="middle">$1.09</text><rect x="434.1" y="111" width="116.0" height="23" fill="#2b3036"/><rect x="447.1" y="118.5" width="65.2" height="8" rx="4" fill="#454c54"/><rect x="447.1" y="118.5" width="26.1" height="8" rx="4" fill="#b08800"/><text x="519.3" y="126.0" fill="#c9d1d9" font-family="Verdana,DejaVu Sans,Geneva,sans-serif" font-size="10.5" font-weight="700">2/5</text><rect x="0" y="111" width="550" height="1" fill="#1b1f24" fill-opacity="0.6"/><rect x="0.0" y="134" width="87.9" height="23" fill="#565d64"/><text x="44.0" y="149.5" fill="#010101" fill-opacity="0.3" font-family="Verdana,DejaVu Sans,Geneva,sans-serif" font-size="11" text-anchor="middle">claude code</text><text x="44.0" y="148.5" fill="#fff" font-family="Verdana,DejaVu Sans,Geneva,sans-serif" font-size="11" text-anchor="middle">claude code</text><rect x="87.9" y="134" width="119.2" height="23" fill="#3a4047"/><use href="#lg-anthropic" x="109.8" y="139.0" width="13.0" height="13"/><text x="128.8" y="149.5" fill="#010101" fill-opacity="0.3" font-family="Verdana,DejaVu Sans,Geneva,sans-serif" font-size="11">Sonnet 4.6</text><text x="128.8" y="148.5" fill="#fff" font-family="Verdana,DejaVu Sans,Geneva,sans-serif" font-size="11">Sonnet 4.6</text><rect x="207.1" y="134" width="161.6" height="23" fill="#4a5158"/><text x="287.9" y="149.5" fill="#010101" fill-opacity="0.3" font-family="Verdana,DejaVu Sans,Geneva,sans-serif" font-size="11" text-anchor="middle">8:49</text><text x="287.9" y="148.5" fill="#fff" font-family="Verdana,DejaVu Sans,Geneva,sans-serif" font-size="11" text-anchor="middle">8:49</text><rect x="368.7" y="134" width="65.4" height="23" fill="#3a4047"/><text x="401.4" y="149.5" fill="#010101" fill-opacity="0.3" font-family="Verdana,DejaVu Sans,Geneva,sans-serif" font-size="11" text-anchor="middle">$4.11</text><text x="401.4" y="148.5" fill="#fff" font-family="Verdana,DejaVu Sans,Geneva,sans-serif" font-size="11" text-anchor="middle">$4.11</text><rect x="434.1" y="134" width="116.0" height="23" fill="#2b3036"/><rect x="447.1" y="141.5" width="65.2" height="8" rx="4" fill="#454c54"/><rect x="447.1" y="141.5" width="26.1" height="8" rx="4" fill="#b08800"/><text x="519.3" y="149.0" fill="#c9d1d9" font-family="Verdana,DejaVu Sans,Geneva,sans-serif" font-size="10.5" font-weight="700">2/5</text><rect x="0" y="134" width="550" height="1" fill="#1b1f24" fill-opacity="0.6"/><rect x="0.0" y="157" width="87.9" height="23" fill="#565d64"/><text x="44.0" y="172.5" fill="#010101" fill-opacity="0.3" font-family="Verdana,DejaVu Sans,Geneva,sans-serif" font-size="11" text-anchor="middle">claude code</text><text x="44.0" y="171.5" fill="#fff" font-family="Verdana,DejaVu Sans,Geneva,sans-serif" font-size="11" text-anchor="middle">claude code</text><rect x="87.9" y="157" width="119.2" height="23" fill="#3a4047"/><use href="#lg-anthropic" x="112.9" y="162.0" width="13.0" height="13"/><text x="131.9" y="172.5" fill="#010101" fill-opacity="0.3" font-family="Verdana,DejaVu Sans,Geneva,sans-serif" font-size="11">Haiku 4.5</text><text x="131.9" y="171.5" fill="#fff" font-family="Verdana,DejaVu Sans,Geneva,sans-serif" font-size="11">Haiku 4.5</text><rect x="207.1" y="157" width="161.6" height="23" fill="#4a5158"/><text x="287.9" y="172.5" fill="#010101" fill-opacity="0.3" font-family="Verdana,DejaVu Sans,Geneva,sans-serif" font-size="11" text-anchor="middle">8:53</text><text x="287.9" y="171.5" fill="#fff" font-family="Verdana,DejaVu Sans,Geneva,sans-serif" font-size="11" text-anchor="middle">8:53</text><rect x="368.7" y="157" width="65.4" height="23" fill="#3a4047"/><text x="401.4" y="172.5" fill="#010101" fill-opacity="0.3" font-family="Verdana,DejaVu Sans,Geneva,sans-serif" font-size="11" text-anchor="middle">$1.79</text><text x="401.4" y="171.5" fill="#fff" font-family="Verdana,DejaVu Sans,Geneva,sans-serif" font-size="11" text-anchor="middle">$1.79</text><rect x="434.1" y="157" width="116.0" height="23" fill="#2b3036"/><rect x="447.1" y="164.5" width="65.2" height="8" rx="4" fill="#454c54"/><rect x="447.1" y="164.5" width="13.0" height="8" rx="4" fill="#cf462d"/><text x="519.3" y="172.0" fill="#c9d1d9" font-family="Verdana,DejaVu Sans,Geneva,sans-serif" font-size="10.5" font-weight="700">1/5</text><rect x="0" y="157" width="550" height="1" fill="#1b1f24" fill-opacity="0.6"/><rect x="0" y="180" width="550" height="24" fill="#1f242b"/><text x="474.4" y="195.0" fill="#9aa4af" font-family="Verdana,DejaVu Sans,Geneva,sans-serif" font-size="9.5" text-anchor="end">powered by</text><svg x="480.4" y="186.5" width="18" height="11" viewBox="0 0 211 128"><path d="M141.897 4.81891L198.776 118.724L206.674 121.931V122.729H154.723V121.931L167.383 118.724L127.76 38.4603C111.422 74.6617 85.2282 120.666 124.64 121.916V122.714H80.2546V121.916L88.152 118.709L141.565 4.81891H141.897Z" fill="#fff"/><path d="M64.777 122.729L7.89743 8.82452L0 5.61703V4.81891H51.9512V5.61703L39.2912 8.82452L78.914 89.088C95.2514 52.8866 121.446 6.88197 82.0338 5.63209V4.83397H126.419V5.63209L118.522 8.83958L65.0935 122.744H64.7619L64.777 122.729Z" fill="#fff"/></svg><text x="502.4" y="195.3" fill="#fff" font-family="Verdana,DejaVu Sans,Geneva,sans-serif" font-size="10.5" font-weight="600">vals.ai</text></g></svg>