<svg xmlns="http://www.w3.org/2000/svg" width="66" height="18" viewBox="0 0 66 18"><rect width="66" height="18" rx="9.0" fill="#24292f"/><svg x="7" y="4.0" width="16" height="10" viewBox="0 0 211 128"><path d="M141.897 4.81891L198.776 118.724L206.674 121.931V122.729H154.723V121.931L167.383 118.724L127.76 38.4603C111.422 74.6617 85.2282 120.666 124.64 121.916V122.714H80.2546V121.916L88.152 118.709L141.565 4.81891H141.897Z" fill="#fff"/><path d="M64.777 122.729L7.89743 8.82452L0 5.61703V4.81891H51.9512V5.61703L39.2912 8.82452L78.914 89.088C95.2514 52.8866 121.446 6.88197 82.0338 5.63209V4.83397H126.419V5.63209L118.522 8.83958L65.0935 122.744H64.7619L64.777 122.729Z" fill="#fff"/></svg><text x="28" y="12.5" fill="#fff" font-family="Verdana,DejaVu Sans,Geneva,sans-serif" font-size="10.5" font-weight="600">vals.ai</text></svg>